<?xml version="1.0" encoding="utf-8"?>
<!-- Generator: Adobe Illustrator 27.8.0, SVG Export Plug-In . SVG Version: 6.00 Build 0)  -->
<svg version="1.1" id="Layer_1" xmlns="http://www.w3.org/2000/svg" xmlns:xlink="http://www.w3.org/1999/xlink" x="0px" y="0px"
	 width="410px" height="410px" viewBox="0 0 410 410" enable-background="new 0 0 410 410" xml:space="preserve">
<g>
	<path d="M252.4,9.84c27.96,7.6,54.14,18.2,73.18,41.66c54.98,67.37,18.86,165.23-67.93,183.24c-3.57,0.75-7.13,1.13-13.42,2.06
		c39.31,54.33,77.59,107.06,118.03,163.07c-28.71,0-53.95,0.56-79.19-0.47c-4.88-0.19-10.88-5.25-14.17-9.76
		c-35.09-47.76-72.06-94.48-103.4-144.68c-11.17-17.92-8.26-44.57-12.29-70.46c28.62,0,51.51,0.66,74.4-0.19
		c39.69-1.41,64.36-35.28,50.29-68.77C269,84.43,252.3,73.46,229.5,73.36c-59.77-0.19-119.82,0.19-179.77,0.28c0-21.3,0-42.5,0-63.8
		C117.29,9.84,184.84,9.84,252.4,9.84z"/>
	<path d="M49.73,107.42c23.55,0,47.01,0,71.68,0c0,97.77,0,194.03,0,292.74c-24.58,0-48.13,0-71.68,0
		C49.73,302.58,49.73,205,49.73,107.42z"/>
</g>
</svg>
