<?xml version="1.0" encoding="utf-8"?>
<!-- Generator: Adobe Illustrator 27.8.0, SVG Export Plug-In . SVG Version: 6.00 Build 0)  -->
<svg version="1.1" id="Layer_1" xmlns="http://www.w3.org/2000/svg" xmlns:xlink="http://www.w3.org/1999/xlink" x="0px" y="0px"
	 width="29.12px" height="29.12px" viewBox="0 0 29.12 29.12" enable-background="new 0 0 29.12 29.12" xml:space="preserve">
<g>
	<path fill="#FF0000" d="M14.55,28.56c-7.72-0.01-14-6.3-13.99-14.01c0.01-7.72,6.29-14,14.01-13.99c7.72,0.01,14,6.29,13.99,14.01
		C28.55,22.29,22.27,28.57,14.55,28.56z M16.07,12.18c0-1.17,0-2.33,0-3.5c0-0.14,0-0.29-0.04-0.43c-0.17-0.77-0.86-1.26-1.64-1.19
		c-0.75,0.07-1.34,0.73-1.34,1.51c0,2.4-0.01,4.79,0,7.19c0,0.86,0.66,1.51,1.5,1.51c0.84,0,1.51-0.65,1.51-1.5
		C16.08,14.57,16.07,13.37,16.07,12.18z M12.85,20.59c0.01,0.95,0.77,1.7,1.72,1.69c0.95-0.01,1.7-0.77,1.69-1.72
		c0-0.95-0.77-1.7-1.72-1.69C13.6,18.88,12.85,19.64,12.85,20.59z"/>
</g>
</svg>
