<?xml version="1.0" encoding="utf-8"?>
<!-- Generator: Adobe Illustrator 27.8.0, SVG Export Plug-In . SVG Version: 6.00 Build 0)  -->
<svg version="1.1" id="Layer_1" xmlns="http://www.w3.org/2000/svg" xmlns:xlink="http://www.w3.org/1999/xlink" x="0px" y="0px"
	 width="21.29px" height="21.29px" viewBox="0 0 21.29 21.29" enable-background="new 0 0 21.29 21.29" xml:space="preserve">
<g>
	<path d="M10.63,12.54c-2.61,0-5.23,0-7.84,0c-1.01,0-1.8-0.63-1.96-1.56c-0.2-1.16,0.63-2.18,1.82-2.23c0.06,0,0.12,0,0.18,0
		c5.21,0,10.42,0,15.63,0c0.95,0,1.66,0.48,1.93,1.3c0.42,1.26-0.5,2.49-1.87,2.5c-2.22,0.01-4.44,0-6.65,0
		C11.45,12.54,11.04,12.54,10.63,12.54z"/>
</g>
</svg>
