<?xml version="1.0" encoding="utf-8"?>
<!-- Generator: Adobe Illustrator 27.8.0, SVG Export Plug-In . SVG Version: 6.00 Build 0)  -->
<svg version="1.1" id="Layer_1" xmlns="http://www.w3.org/2000/svg" xmlns:xlink="http://www.w3.org/1999/xlink" x="0px" y="0px"
	 width="21.29px" height="21.29px" viewBox="0 0 21.29 21.29" enable-background="new 0 0 21.29 21.29" xml:space="preserve">
<g>
	<path d="M10.41,0.49c0.16,0,0.32,0,0.48,0c0.01,0.01,0.02,0.02,0.03,0.02c1.04,0.26,1.51,0.88,1.51,1.95c0,2.05,0,4.1,0,6.15
		c0,0.08,0,0.16,0,0.25c0.1,0,0.17,0,0.25,0c2.1,0,4.19,0,6.29,0c0.65,0,1.18,0.26,1.53,0.8c0.14,0.22,0.21,0.49,0.31,0.74
		c0,0.16,0,0.32,0,0.48c-0.01,0.02-0.02,0.03-0.03,0.05c-0.26,1.02-0.88,1.49-1.93,1.49c-2.06,0-4.11,0-6.17,0
		c-0.08,0-0.15,0-0.25,0c0,0.1,0,0.17,0,0.25c0,2.1,0,4.19,0,6.29c0,0.81-0.46,1.47-1.19,1.73c-0.12,0.04-0.24,0.07-0.36,0.11
		c-0.16,0-0.32,0-0.48,0c-0.01-0.01-0.02-0.02-0.03-0.02c-1.04-0.27-1.51-0.88-1.51-1.95c0-2.05,0-4.1,0-6.15c0-0.08,0-0.16,0-0.25
		c-0.1,0-0.17,0-0.25,0c-2.1,0-4.19,0-6.29,0c-0.9,0-1.59-0.56-1.8-1.44c-0.01-0.04-0.02-0.07-0.04-0.11c0-0.16,0-0.32,0-0.48
		c0.01-0.02,0.02-0.05,0.03-0.07c0.25-0.98,0.88-1.48,1.9-1.48c2.07,0,4.14,0,6.2,0c0.08,0,0.15,0,0.24,0c0-0.1,0-0.18,0-0.26
		c0-2.09,0-4.19,0-6.28c0-0.71,0.31-1.26,0.94-1.61C9.98,0.61,10.2,0.56,10.41,0.49z"/>
</g>
</svg>
