<?xml version="1.0" encoding="utf-8"?>
<!-- Generator: Adobe Illustrator 27.8.0, SVG Export Plug-In . SVG Version: 6.00 Build 0)  -->
<svg version="1.1" id="Layer_1" xmlns="http://www.w3.org/2000/svg" xmlns:xlink="http://www.w3.org/1999/xlink" x="0px" y="0px"
	 width="21.29px" height="21.29px" viewBox="0 0 21.29 21.29" enable-background="new 0 0 21.29 21.29" xml:space="preserve">
<g>
	<path d="M10.41,0.55c0.16,0,0.32,0,0.48,0c0.01,0.01,0.02,0.02,0.03,0.02c1.03,0.26,1.5,0.87,1.5,1.94c0,2.04,0,4.07,0,6.11
		c0,0.08,0,0.16,0,0.25c0.1,0,0.17,0,0.25,0c2.09,0,4.16,0,6.25,0c0.65,0,1.17,0.26,1.52,0.8c0.14,0.22,0.21,0.49,0.31,0.74
		c0,0.16,0,0.32,0,0.48c-0.01,0.02-0.02,0.03-0.03,0.05c-0.26,1.01-0.87,1.48-1.92,1.48c-2.05,0-4.08,0-6.13,0
		c-0.08,0-0.15,0-0.25,0c0,0.1,0,0.17,0,0.25c0,2.09,0,4.16,0,6.25c0,0.8-0.46,1.46-1.18,1.72c-0.12,0.04-0.24,0.07-0.36,0.11
		c-0.16,0-0.32,0-0.48,0c-0.01-0.01-0.02-0.02-0.03-0.02c-1.03-0.27-1.5-0.87-1.5-1.94c0-2.04,0-4.07,0-6.11c0-0.08,0-0.16,0-0.25
		c-0.1,0-0.17,0-0.25,0c-2.09,0-4.16,0-6.25,0c-0.89,0-1.58-0.56-1.79-1.43c-0.01-0.04-0.02-0.07-0.04-0.11c0-0.16,0-0.32,0-0.48
		c0.01-0.02,0.02-0.05,0.03-0.07c0.25-0.97,0.87-1.47,1.89-1.47c2.06,0,4.11,0,6.16,0c0.08,0,0.15,0,0.24,0c0-0.1,0-0.18,0-0.26
		c0-2.08,0-4.16,0-6.24c0-0.71,0.31-1.25,0.93-1.6C9.98,0.67,10.2,0.62,10.41,0.55z"/>
</g>
</svg>
