<?xml version="1.0" encoding="utf-8"?>
<!-- Generator: Adobe Illustrator 27.8.0, SVG Export Plug-In . SVG Version: 6.00 Build 0)  -->
<svg version="1.1" id="Layer_1" xmlns="http://www.w3.org/2000/svg" xmlns:xlink="http://www.w3.org/1999/xlink" x="0px" y="0px"
	 width="200px" height="50px" viewBox="0 0 200 50" enable-background="new 0 0 200 50" xml:space="preserve">
<g>
	<path d="M51.41,46c-2.36-0.81-4.9-1.3-7.05-2.49c-4.13-2.29-6.15-6.15-6.61-10.78c-0.48-4.79,0.24-9.31,3.55-13.09
		c4.02-4.59,11.52-6.18,17.85-3.82c5.61,2.1,8.97,7.26,8.95,13.79c0,0.72-0.15,1.45-0.26,2.39c-7.48,0-14.89,0-22.29,0
		c-0.21,3.83,1.7,6.63,5.05,7.63c3.84,1.15,7.29-0.09,9.2-3.2c0.28-0.46,0.95-0.94,1.47-0.96c1.98-0.11,3.97-0.05,6.24-0.05
		c-1.01,4.65-3.69,7.59-7.77,9.32c-1.26,0.53-2.61,0.85-3.93,1.26C54.34,46,52.87,46,51.41,46z M60.3,26.73
		c-0.58-3.89-3.64-6.37-7.41-6.19c-4,0.2-6.91,2.73-7.02,6.19C50.63,26.73,55.39,26.73,60.3,26.73z"/>
	<path d="M113,46c-2.58-0.98-5.42-1.56-7.67-3.04c-5.31-3.47-7.35-10.67-5.44-17.5c1.7-6.06,6.63-10,13.28-10.61
		c8.74-0.8,15.56,3.59,17.27,11.36c2.2,10.04-3.27,18.38-12.56,19.47c-0.17,0.02-0.32,0.2-0.48,0.3C115.93,46,114.46,46,113,46z
		 M115,39.6c4.48,0.56,8.33-3.54,8.35-9.1c0.03-5.65-3.31-9.48-8.28-9.47c-4.91,0.01-8.21,3.74-8.23,9.3
		C106.83,35.92,110.05,39.59,115,39.6z"/>
	<path d="M26.21,4c2.98,0.81,5.77,1.94,7.8,4.44c5.86,7.18,2.01,17.61-7.24,19.53c-0.38,0.08-0.76,0.12-1.43,0.22
		c4.19,5.79,8.27,11.41,12.58,17.38c-3.06,0-5.75,0.06-8.44-0.05c-0.52-0.02-1.16-0.56-1.51-1.04c-3.74-5.09-7.68-10.07-11.02-15.42
		c-1.19-1.91-0.88-4.75-1.31-7.51c3.05,0,5.49,0.07,7.93-0.02c4.23-0.15,6.86-3.76,5.36-7.33c-0.95-2.25-2.73-3.42-5.16-3.43
		C17.4,10.75,11,10.79,4.61,10.8c0-2.27,0-4.53,0-6.8C11.81,4,19.01,4,26.21,4z"/>
	<path d="M156.99,46c-0.3-0.12-0.58-0.3-0.89-0.36c-4.46-0.88-7.11-3.68-8.3-7.93c-0.39-1.4-0.68-2.88-0.69-4.32
		c-0.08-5.98-0.03-11.96-0.03-18.09c2.45,0,4.81,0,7.47,0c0,0.67,0,1.37,0,2.08c0.02,5.26-0.06,10.52,0.11,15.78
		c0.12,3.6,2.08,5.84,5,6.32c3.5,0.58,6.36-0.85,7.56-4.08c0.57-1.52,0.85-3.23,0.9-4.86c0.12-4.39,0.04-8.79,0.04-13.18
		c0-0.65,0-1.3,0-2.08c2.53,0,4.88,0,7.34,0c0,10.08,0,20.1,0,30.2c-2.17,0-4.21,0-6.34,0c-0.26-1.02-0.51-2.02-0.69-2.76
		c-2.39,1.11-4.73,2.2-7.07,3.29C159.93,46,158.46,46,156.99,46z"/>
	<path d="M188.19,46c-0.18-0.08-0.35-0.23-0.53-0.24c-5.07-0.26-7.25-3.44-7.27-8.21c-0.05-9.92-0.02-19.84-0.02-29.76
		c0-0.26,0.07-0.51,0.13-0.89c2.39,0,4.74,0,7.28,0c0,2.69,0,5.32,0,8.18c2.59,0,5.02,0,7.6,0c0,2.24,0,4.25,0,6.47
		c-2.46,0-4.89,0-7.51,0c0,5.3-0.05,10.41,0.03,15.51c0.02,1.57,1.09,2.37,2.65,2.39c1.58,0.03,3.16,0.01,4.84,0.01
		c0,2.34,0,4.45,0,6.55C192.99,46,190.59,46,188.19,46z"/>
	<path d="M142.19,4c0.05,0.73,0.13,1.46,0.13,2.18c0.01,12.32,0.01,24.64,0.01,36.95c0,0.72,0,1.44,0,2.29c-2.48,0-4.77,0-7.34,0
		c0-13.8,0-27.62,0-41.43C137.4,4,139.8,4,142.19,4z"/>
	<path d="M4.61,14.4c2.51,0,5.01,0,7.64,0c0,10.42,0,20.68,0,31.2c-2.62,0-5.13,0-7.64,0C4.61,35.2,4.61,24.8,4.61,14.4z"/>
	<path d="M99.51,15.14c-2.43,6.65-4.75,13-7.07,19.36c-1.16,3.18-2.36,6.36-3.48,9.56c-0.38,1.07-0.9,1.6-2.14,1.54
		c-2.39-0.11-4.78-0.03-7.29-0.03c-3.69-10.07-7.37-20.09-11.16-30.41c2.54,0,4.78-0.08,7.01,0.07c0.47,0.03,1.08,0.84,1.28,1.41
		c2.18,6.13,4.28,12.29,6.41,18.44c0.23,0.67,0.5,1.34,0.9,2.41c2.45-7.07,4.8-13.69,7.01-20.36c0.5-1.51,1.14-2.17,2.79-2.02
		C95.55,15.27,97.36,15.14,99.51,15.14z"/>
</g>
<g>
</g>
<g>
</g>
<g>
</g>
<g>
</g>
<g>
</g>
<g>
</g>
<g>
</g>
<g>
</g>
<g>
</g>
<g>
</g>
<g>
</g>
<g>
</g>
<g>
</g>
<g>
</g>
<g>
</g>
</svg>
