<?xml version="1.0" encoding="utf-8"?>
<!-- Generator: Adobe Illustrator 27.8.0, SVG Export Plug-In . SVG Version: 6.00 Build 0)  -->
<svg version="1.1" id="Layer_1" xmlns="http://www.w3.org/2000/svg" xmlns:xlink="http://www.w3.org/1999/xlink" x="0px" y="0px"
	 width="29.12px" height="29.12px" viewBox="0 0 29.12 29.12" enable-background="new 0 0 29.12 29.12" xml:space="preserve">
<circle cx="14.56" cy="14.56" r="14.4"/>
<g>
	<path fill="#FFFFFF" d="M4.58,11.68c0.09-0.28,0.27-0.49,0.48-0.69c1.27-1.26,2.54-2.54,3.8-3.8c0.5-0.5,1.05-0.51,1.55-0.01
		c1.35,1.35,2.69,2.69,4.04,4.04c0.36,0.36,0.44,0.79,0.23,1.19c-0.31,0.6-1.08,0.71-1.58,0.22c-0.77-0.76-1.53-1.52-2.29-2.29
		c-0.05-0.05-0.09-0.11-0.13-0.17c-0.02,0.01-0.04,0.02-0.06,0.02c0,0.07,0,0.14,0,0.22c0,3.63,0,7.25,0,10.88
		c0,0.54-0.29,0.92-0.78,1.02C9.28,22.43,8.7,22,8.67,21.41c0-0.08,0-0.17,0-0.25c0-3.58,0-7.16,0-10.74c0-0.07,0-0.15,0-0.27
		c-0.08,0.08-0.13,0.12-0.18,0.17c-0.69,0.69-1.42,1.36-2.07,2.09c-0.62,0.69-1.57,0.53-1.83-0.34C4.58,11.94,4.58,11.81,4.58,11.68
		z"/>
	<path fill="#FFFFFF" d="M20.45,18.98c0.09-0.08,0.14-0.13,0.19-0.18c0.74-0.74,1.48-1.48,2.22-2.22c0.28-0.28,0.62-0.38,1-0.26
		c0.37,0.11,0.59,0.37,0.67,0.74c0.08,0.37-0.05,0.67-0.31,0.94c-0.86,0.85-1.71,1.71-2.56,2.56c-0.47,0.47-0.95,0.95-1.42,1.42
		c-0.46,0.45-1.03,0.46-1.48,0.01c-1.36-1.36-2.72-2.72-4.08-4.08c-0.43-0.43-0.45-1.03-0.05-1.43c0.4-0.4,1-0.38,1.42,0.04
		c0.76,0.76,1.52,1.52,2.28,2.27c0.05,0.05,0.1,0.1,0.18,0.18c0-0.11,0-0.19,0-0.26c0-3.63,0-7.25,0-10.88
		c0-0.51,0.27-0.88,0.73-1.01c0.59-0.16,1.19,0.27,1.22,0.89c0,0.08,0,0.16,0,0.23c0,3.58,0,7.16,0,10.74
		C20.45,18.77,20.45,18.85,20.45,18.98z"/>
</g>
</svg>
