<?xml version="1.0" encoding="utf-8"?>
<!-- Generator: Adobe Illustrator 27.8.0, SVG Export Plug-In . SVG Version: 6.00 Build 0)  -->
<svg version="1.1" id="Layer_1" xmlns="http://www.w3.org/2000/svg" xmlns:xlink="http://www.w3.org/1999/xlink" x="0px" y="0px"
	 width="21px" height="13px" viewBox="0 0 21 13" enable-background="new 0 0 21 13" xml:space="preserve">
<g>
	<path d="M0.23,11.44c0.16-0.21,0.31-0.45,0.49-0.64C2.75,8.76,4.78,6.74,6.8,4.71c0.47-0.47,0.93-0.47,1.41,0
		c1.13,1.13,2.27,2.27,3.4,3.4c0.05,0.05,0.09,0.12,0.12,0.16c2.04-2.04,4.04-4.04,6.06-6.06c-0.06,0-0.13,0-0.2,0
		c-0.93,0-1.86,0-2.79,0c-0.59,0-0.98-0.49-0.85-1.05c0.08-0.37,0.4-0.64,0.79-0.65c0.38-0.01,0.76,0,1.14,0
		c1.34,0,2.67-0.01,4.01-0.01c0.5,0,0.88,0.37,0.88,0.87c0,1.7,0,3.39,0,5.09c0,0.36-0.15,0.64-0.47,0.8
		c-0.31,0.15-0.61,0.13-0.89-0.08C19.14,7,19.05,6.73,19.05,6.42c0-0.9,0-1.8,0-2.71c0-0.07,0-0.14,0-0.21
		c-0.02-0.02-0.04-0.03-0.07-0.05c-0.04,0.06-0.08,0.14-0.13,0.19c-2.12,2.12-4.23,4.23-6.35,6.35c-0.49,0.49-0.94,0.49-1.44,0
		c-1.13-1.13-2.27-2.27-3.4-3.4C7.62,6.54,7.58,6.48,7.54,6.42C7.51,6.41,7.49,6.4,7.46,6.39C7.42,6.46,7.39,6.54,7.33,6.6
		c-1.85,1.86-3.71,3.72-5.57,5.57c-0.53,0.53-1.21,0.39-1.49-0.29c-0.01-0.02-0.02-0.03-0.04-0.04C0.23,11.7,0.23,11.57,0.23,11.44z
		"/>
</g>
<g>
</g>
<g>
</g>
<g>
</g>
<g>
</g>
<g>
</g>
<g>
</g>
<g>
</g>
<g>
</g>
<g>
</g>
<g>
</g>
<g>
</g>
<g>
</g>
<g>
</g>
<g>
</g>
<g>
</g>
</svg>
